<?xml version="1.0" encoding="UTF-8"?>
<svg xmlns="http://www.w3.org/2000/svg" xmlns:xlink="http://www.w3.org/1999/xlink" width="45px" height="45px" viewBox="0 0 45 45" version="1.1">
<g id="surface1">
<path style=" stroke:none;fill-rule:nonzero;fill:rgb(0%,0%,0%);fill-opacity:1;" d="M 43.5 1.125 L 30 1.125 C 29.175781 1.125 28.5 1.800781 28.5 2.625 L 28.5 5.625 C 28.5 6.449219 29.175781 7.125 30 7.125 L 30.75 7.125 L 30.75 19.125 C 30.75 24.898438 26.023438 29.625 20.25 29.625 L 6 29.625 L 6 28.875 C 6 28.050781 5.324219 27.375 4.5 27.375 L 1.5 27.375 C 0.675781 27.375 0 28.050781 0 28.875 L 0 42.375 C 0 43.199219 0.675781 43.875 1.5 43.875 L 4.5 43.875 C 5.324219 43.875 6 43.199219 6 42.375 L 6 41.625 L 20.25 41.625 C 32.699219 41.625 42.75 31.5 42.75 19.125 L 42.75 7.125 L 43.5 7.125 C 44.324219 7.125 45 6.449219 45 5.625 L 45 2.625 C 45 1.800781 44.324219 1.125 43.5 1.125 Z M 4.5 42.375 L 1.5 42.375 L 1.5 28.875 L 4.5 28.875 Z M 41.25 19.125 C 41.25 30.675781 31.800781 40.125 20.25 40.125 L 6 40.125 L 6 38.625 L 14.25 38.625 C 14.699219 38.625 15 38.324219 15 37.875 C 15 37.425781 14.699219 37.125 14.25 37.125 L 6 37.125 L 6 31.125 L 20.25 31.125 C 26.851562 31.125 32.25 25.726562 32.25 19.125 L 32.25 7.125 L 41.25 7.125 Z M 43.5 5.625 L 30 5.625 L 30 2.625 L 43.5 2.625 Z M 43.5 5.625 "/>
<path style=" stroke:none;fill-rule:nonzero;fill:rgb(0%,0%,0%);fill-opacity:1;" d="M 27.824219 36.300781 C 27.976562 36.601562 28.199219 36.75 28.5 36.75 C 28.648438 36.75 28.726562 36.675781 28.875 36.675781 C 30.523438 35.851562 32.101562 34.726562 33.523438 33.449219 C 33.898438 33.148438 33.898438 32.699219 33.601562 32.398438 C 33.300781 32.023438 32.851562 32.023438 32.550781 32.324219 C 31.199219 33.523438 29.773438 34.574219 28.199219 35.324219 C 27.824219 35.476562 27.675781 35.925781 27.824219 36.300781 Z M 27.824219 36.300781 "/>
<path style=" stroke:none;fill-rule:nonzero;fill:rgb(0%,0%,0%);fill-opacity:1;" d="M 34.648438 31.875 C 34.875 31.875 35.101562 31.800781 35.324219 31.648438 C 36.675781 30 37.800781 28.125 38.550781 26.175781 C 38.699219 25.800781 38.476562 25.351562 38.101562 25.199219 C 37.726562 25.050781 37.273438 25.273438 37.125 25.648438 C 36.375 27.449219 35.398438 29.175781 34.125 30.675781 C 33.824219 30.976562 33.898438 31.425781 34.199219 31.726562 C 34.273438 31.800781 34.5 31.875 34.648438 31.875 Z M 34.648438 31.875 "/>
<path style=" stroke:none;fill-rule:nonzero;fill:rgb(0%,0%,0%);fill-opacity:1;" d="M 39 12.375 C 39.449219 12.375 39.75 12.074219 39.75 11.625 L 39.75 9.375 C 39.75 8.925781 39.449219 8.625 39 8.625 C 38.550781 8.625 38.25 8.925781 38.25 9.375 L 38.25 11.625 C 38.25 12.074219 38.550781 12.375 39 12.375 Z M 39 12.375 "/>
<path style=" stroke:none;fill-rule:nonzero;fill:rgb(0%,0%,0%);fill-opacity:1;" d="M 39 15.375 C 39.449219 15.375 39.75 15.074219 39.75 14.625 C 39.75 14.175781 39.449219 13.875 39 13.875 C 38.550781 13.875 38.25 14.175781 38.25 14.625 C 38.25 15.074219 38.550781 15.375 39 15.375 Z M 39 15.375 "/>
</g>
</svg>
