<?xml version="1.0" encoding="UTF-8"?>
<svg xmlns="http://www.w3.org/2000/svg" xmlns:xlink="http://www.w3.org/1999/xlink" width="45px" height="45px" viewBox="0 0 45 45" version="1.1">
<g id="surface1">
<path style=" stroke:none;fill-rule:nonzero;fill:rgb(0%,0%,0%);fill-opacity:1;" d="M 22.5 20.625 C 21.464844 20.625 20.625 21.464844 20.625 22.5 C 20.625 23.535156 21.464844 24.375 22.5 24.375 C 23.535156 24.375 24.375 23.535156 24.375 22.5 C 24.375 21.464844 23.535156 20.625 22.5 20.625 M 23.4375 3.75 C 31.875 3.75 32.0625 10.445312 27.617188 12.65625 C 25.945312 13.648438 24.824219 15.359375 24.582031 17.289062 C 25.476562 17.660156 26.269531 18.246094 26.886719 18.992188 C 33.75 15.242188 41.25 16.726562 41.25 23.4375 C 41.25 31.875 34.539062 32.0625 32.34375 27.617188 C 31.324219 25.945312 29.597656 24.828125 27.65625 24.582031 C 27.28125 25.476562 26.695312 26.265625 25.949219 26.886719 C 29.699219 33.804688 28.199219 41.25 21.488281 41.25 C 13.125 41.25 12.917969 34.539062 17.363281 32.324219 C 19.007812 31.320312 20.121094 29.636719 20.398438 27.730469 C 19.480469 27.371094 18.671875 26.777344 18.054688 26.007812 C 11.136719 29.71875 3.75 28.257812 3.75 21.5625 C 3.75 13.125 10.386719 12.917969 12.601562 17.363281 C 13.605469 19.027344 15.320312 20.140625 17.25 20.382812 C 17.609375 19.480469 18.207031 18.6875 18.976562 18.09375 C 15.242188 11.25 16.726562 3.75 23.398438 3.75 Z M 23.4375 3.75 "/>
</g>
</svg>
