<?xml version="1.0" encoding="UTF-8"?>
<svg xmlns="http://www.w3.org/2000/svg" xmlns:xlink="http://www.w3.org/1999/xlink" width="45px" height="45px" viewBox="0 0 45 45" version="1.1">
<g id="surface1">
<path style=" stroke:none;fill-rule:nonzero;fill:rgb(100%,86.666667%,3.529412%);fill-opacity:1;" d="M 39.75 17.25 L 27.75 17.25 L 27.75 5.25 L 17.25 5.25 L 17.25 17.25 L 5.25 17.25 L 5.25 27.75 L 17.25 27.75 L 17.25 39.75 L 27.75 39.75 L 27.75 27.75 L 39.75 27.75 Z M 39.75 17.25 "/>
<path style=" stroke:none;fill-rule:nonzero;fill:rgb(98.823529%,76.470588%,3.529412%);fill-opacity:1;" d="M 15 4.5 L 15 1.5 C 15 1.050781 15.300781 0.75 15.75 0.75 L 29.25 0.75 C 29.699219 0.75 30 1.050781 30 1.5 L 30 4.5 C 30 4.949219 29.699219 5.25 29.25 5.25 L 15.75 5.25 C 15.375 5.25 15 4.949219 15 4.5 "/>
<path style=" stroke:none;fill-rule:nonzero;fill:rgb(99.215686%,59.607843%,3.137255%);fill-opacity:1;" d="M 29.25 0.75 L 27 0.75 C 27.449219 0.75 27.75 1.050781 27.75 1.5 L 27.75 4.5 C 27.75 4.949219 27.449219 5.25 27 5.25 L 29.25 5.25 C 29.699219 5.25 30 4.949219 30 4.5 L 30 1.5 C 30 1.125 29.699219 0.75 29.25 0.75 "/>
<path style=" stroke:none;fill-rule:nonzero;fill:rgb(100%,100%,100%);fill-opacity:1;" d="M 17.25 4.5 L 17.25 1.5 C 17.25 1.050781 17.550781 0.75 18 0.75 L 15.75 0.75 C 15.300781 0.75 15 1.050781 15 1.5 L 15 4.5 C 15 4.949219 15.300781 5.25 15.75 5.25 L 18 5.25 C 17.625 5.25 17.25 4.949219 17.25 4.5 "/>
<path style=" stroke:none;fill-rule:nonzero;fill:rgb(98.823529%,76.470588%,3.529412%);fill-opacity:1;" d="M 15 43.5 L 15 40.5 C 15 40.050781 15.300781 39.75 15.75 39.75 L 29.25 39.75 C 29.699219 39.75 30 40.050781 30 40.5 L 30 43.5 C 30 43.949219 29.699219 44.25 29.25 44.25 L 15.75 44.25 C 15.375 44.25 15 43.949219 15 43.5 "/>
<path style=" stroke:none;fill-rule:nonzero;fill:rgb(99.215686%,59.607843%,3.137255%);fill-opacity:1;" d="M 29.25 39.75 L 27 39.75 C 27.449219 39.75 27.75 40.050781 27.75 40.5 L 27.75 43.5 C 27.75 43.949219 27.449219 44.25 27 44.25 L 29.25 44.25 C 29.699219 44.25 30 43.949219 30 43.5 L 30 40.5 C 30 40.125 29.699219 39.75 29.25 39.75 "/>
<path style=" stroke:none;fill-rule:nonzero;fill:rgb(100%,100%,100%);fill-opacity:1;" d="M 17.25 43.5 L 17.25 40.5 C 17.25 40.050781 17.550781 39.75 18 39.75 L 15.75 39.75 C 15.300781 39.75 15 40.050781 15 40.5 L 15 43.5 C 15 43.949219 15.300781 44.25 15.75 44.25 L 18 44.25 C 17.625 44.25 17.25 43.949219 17.25 43.5 "/>
<path style=" stroke:none;fill-rule:nonzero;fill:rgb(98.823529%,76.470588%,3.529412%);fill-opacity:1;" d="M 40.5 15 L 43.5 15 C 43.949219 15 44.25 15.300781 44.25 15.75 L 44.25 29.25 C 44.25 29.699219 43.949219 30 43.5 30 L 40.5 30 C 40.050781 30 39.75 29.699219 39.75 29.25 L 39.75 15.75 C 39.75 15.375 40.125 15 40.5 15 "/>
<path style=" stroke:none;fill-rule:nonzero;fill:rgb(99.215686%,59.607843%,3.137255%);fill-opacity:1;" d="M 43.5 15 L 42 15 C 42.449219 15 42 15.300781 42 15.75 L 42 29.25 C 42 29.699219 42.449219 30 42 30 L 43.5 30 C 43.949219 30 44.25 29.699219 44.25 29.25 L 44.25 15.75 C 44.25 15.375 43.949219 15 43.5 15 "/>
<path style=" stroke:none;fill-rule:nonzero;fill:rgb(98.823529%,76.470588%,3.529412%);fill-opacity:1;" d="M 4.5 30 L 1.5 30 C 1.050781 30 0.75 29.699219 0.75 29.25 L 0.75 15.75 C 0.75 15.300781 1.050781 15 1.5 15 L 4.5 15 C 4.949219 15 5.25 15.300781 5.25 15.75 L 5.25 29.25 C 5.25 29.699219 4.949219 30 4.5 30 "/>
<path style=" stroke:none;fill-rule:nonzero;fill:rgb(100%,100%,100%);fill-opacity:1;" d="M 1.800781 15 L 3.75 15 C 3.226562 15 3 15.300781 3 15.75 L 3 29.25 C 3 29.699219 3.226562 30 3.75 30 L 1.800781 30 C 1.199219 30 0.75 29.699219 0.75 29.25 L 0.75 15.75 C 0.75 15.375 1.199219 15 1.800781 15 "/>
<path style=" stroke:none;fill-rule:nonzero;fill:rgb(0%,0%,0%);fill-opacity:1;" d="M 29.25 6 L 15.75 6 C 14.925781 6 14.25 5.324219 14.25 4.5 L 14.25 1.5 C 14.25 0.675781 14.925781 0 15.75 0 L 29.25 0 C 30.074219 0 30.75 0.675781 30.75 1.5 L 30.75 4.5 C 30.75 5.324219 30.074219 6 29.25 6 Z M 15.75 1.5 L 15.75 4.5 L 29.25 4.5 L 29.25 1.5 Z M 15.75 1.5 "/>
<path style=" stroke:none;fill-rule:nonzero;fill:rgb(0%,0%,0%);fill-opacity:1;" d="M 29.25 45 L 15.75 45 C 14.925781 45 14.25 44.324219 14.25 43.5 L 14.25 40.5 C 14.25 39.675781 14.925781 39 15.75 39 L 29.25 39 C 30.074219 39 30.75 39.675781 30.75 40.5 L 30.75 43.5 C 30.75 44.324219 30.074219 45 29.25 45 Z M 15.75 40.5 L 15.75 43.5 L 29.25 43.5 L 29.25 40.5 Z M 15.75 40.5 "/>
<path style=" stroke:none;fill-rule:nonzero;fill:rgb(0%,0%,0%);fill-opacity:1;" d="M 39.75 24.75 L 36.75 24.75 C 36.300781 24.75 36 24.449219 36 24 C 36 23.550781 36.300781 23.25 36.75 23.25 L 39.75 23.25 C 40.199219 23.25 40.5 23.550781 40.5 24 C 40.5 24.449219 40.199219 24.75 39.75 24.75 Z M 39.75 24.75 "/>
<path style=" stroke:none;fill-rule:nonzero;fill:rgb(0%,0%,0%);fill-opacity:1;" d="M 30.75 24.75 L 24.75 24.75 C 24.300781 24.75 24 24.449219 24 24 C 24 23.550781 24.300781 23.25 24.75 23.25 L 30.75 23.25 C 31.199219 23.25 31.5 23.550781 31.5 24 C 31.5 24.449219 31.199219 24.75 30.75 24.75 Z M 30.75 24.75 "/>
<path style=" stroke:none;fill-rule:nonzero;fill:rgb(0%,0%,0%);fill-opacity:1;" d="M 33 24 C 33 24.449219 33.300781 24.75 33.75 24.75 C 34.199219 24.75 34.5 24.449219 34.5 24 C 34.5 23.550781 34.199219 23.25 33.75 23.25 C 33.375 23.25 33 23.625 33 24 "/>
<path style=" stroke:none;fill-rule:nonzero;fill:rgb(0%,0%,0%);fill-opacity:1;" d="M 24.75 32.25 C 24.300781 32.25 24 31.949219 24 31.5 L 24 24 C 24 23.550781 24.300781 23.25 24.75 23.25 C 25.199219 23.25 25.5 23.550781 25.5 24 L 25.5 31.5 C 25.5 31.949219 25.199219 32.25 24.75 32.25 Z M 24.75 32.25 "/>
<path style=" stroke:none;fill-rule:nonzero;fill:rgb(0%,0%,0%);fill-opacity:1;" d="M 24.75 40.5 C 24.300781 40.5 24 40.199219 24 39.75 L 24 36 C 24 35.550781 24.300781 35.25 24.75 35.25 C 25.199219 35.25 25.5 35.550781 25.5 36 L 25.5 39.75 C 25.5 40.199219 25.199219 40.5 24.75 40.5 Z M 24.75 40.5 "/>
<path style=" stroke:none;fill-rule:nonzero;fill:rgb(0%,0%,0%);fill-opacity:1;" d="M 27.75 40.5 L 17.25 40.5 C 16.800781 40.5 16.5 40.199219 16.5 39.75 L 16.5 28.5 L 5.25 28.5 C 4.800781 28.5 4.5 28.199219 4.5 27.75 L 4.5 17.25 C 4.5 16.800781 4.800781 16.5 5.25 16.5 L 16.5 16.5 L 16.5 5.25 C 16.5 4.800781 16.800781 4.5 17.25 4.5 L 27.75 4.5 C 28.199219 4.5 28.5 4.800781 28.5 5.25 L 28.5 16.5 L 39.75 16.5 C 40.199219 16.5 40.5 16.800781 40.5 17.25 L 40.5 27.75 C 40.5 28.199219 40.199219 28.5 39.75 28.5 L 28.5 28.5 L 28.5 39.75 C 28.5 40.199219 28.199219 40.5 27.75 40.5 Z M 18 39 L 27 39 L 27 27.75 C 27 27.300781 27.300781 27 27.75 27 L 39 27 L 39 18 L 27.75 18 C 27.300781 18 27 17.699219 27 17.25 L 27 6 L 18 6 L 18 17.25 C 18 17.699219 17.699219 18 17.25 18 L 6 18 L 6 27 L 17.25 27 C 17.699219 27 18 27.300781 18 27.75 Z M 18 39 "/>
<path style=" stroke:none;fill-rule:nonzero;fill:rgb(0%,0%,0%);fill-opacity:1;" d="M 4.5 30.75 L 1.5 30.75 C 0.675781 30.75 0 30.074219 0 29.25 L 0 15.75 C 0 14.925781 0.675781 14.25 1.5 14.25 L 4.5 14.25 C 5.324219 14.25 6 14.925781 6 15.75 L 6 29.25 C 6 30.074219 5.324219 30.75 4.5 30.75 Z M 4.5 29.25 L 4.5 30 Z M 1.5 15.75 L 1.5 29.25 L 4.5 29.25 L 4.5 15.75 Z M 1.5 15.75 "/>
<path style=" stroke:none;fill-rule:nonzero;fill:rgb(0%,0%,0%);fill-opacity:1;" d="M 43.5 30.75 L 40.5 30.75 C 39.675781 30.75 39 30.074219 39 29.25 L 39 15.75 C 39 14.925781 39.675781 14.25 40.5 14.25 L 43.5 14.25 C 44.324219 14.25 45 14.925781 45 15.75 L 45 29.25 C 45 30.074219 44.324219 30.75 43.5 30.75 Z M 43.5 29.25 L 43.5 30 Z M 40.5 15.75 L 40.5 29.25 L 43.5 29.25 L 43.5 15.75 Z M 40.5 15.75 "/>
</g>
</svg>
