<?xml version="1.0" encoding="UTF-8"?>
<svg xmlns="http://www.w3.org/2000/svg" xmlns:xlink="http://www.w3.org/1999/xlink" width="45px" height="45px" viewBox="0 0 45 45" version="1.1">
<g id="surface1">
<path style=" stroke:none;fill-rule:nonzero;fill:rgb(0%,0%,0%);fill-opacity:1;" d="M 29.53125 17.578125 L 25.3125 17.578125 L 25.3125 13.359375 L 28.125 13.359375 C 29.679688 13.359375 30.9375 12.101562 30.9375 10.546875 C 30.9375 8.992188 29.679688 7.734375 28.125 7.734375 L 16.875 7.734375 C 15.320312 7.734375 14.0625 8.992188 14.0625 10.546875 C 14.0625 12.101562 15.320312 13.359375 16.875 13.359375 L 19.6875 13.359375 L 19.6875 17.578125 L 15.46875 17.578125 C 13.914062 17.578125 12.65625 18.792969 12.65625 20.347656 L 12.65625 34.410156 C 12.65625 35.960938 13.914062 37.265625 15.46875 37.265625 L 29.53125 37.265625 C 31.085938 37.265625 32.34375 35.960938 32.34375 34.410156 L 32.34375 20.347656 C 32.34375 18.792969 31.085938 17.578125 29.53125 17.578125 Z M 29.53125 17.578125 "/>
<path style=" stroke:none;fill-rule:nonzero;fill:rgb(0%,0%,0%);fill-opacity:1;" d="M 42.1875 18.960938 C 40.632812 18.960938 39.375 20.214844 39.375 21.796875 L 35.15625 21.796875 L 35.15625 33.046875 L 39.375 33.046875 C 39.375 34.539062 40.632812 35.835938 42.1875 35.835938 C 43.742188 35.835938 45 34.554688 45 33.003906 L 45 21.753906 C 45 20.199219 43.742188 18.960938 42.1875 18.960938 Z M 42.1875 18.960938 "/>
<path style=" stroke:none;fill-rule:nonzero;fill:rgb(0%,0%,0%);fill-opacity:1;" d="M 2.8125 18.960938 C 1.257812 18.960938 0 20.199219 0 21.753906 L 0 33.003906 C 0 34.554688 1.257812 35.835938 2.8125 35.835938 C 4.367188 35.835938 5.625 34.539062 5.625 33.046875 L 9.84375 33.046875 L 9.84375 21.796875 L 5.625 21.796875 C 5.625 20.214844 4.367188 18.960938 2.8125 18.960938 Z M 2.8125 18.960938 "/>
</g>
</svg>
