<?xml version="1.0" encoding="UTF-8"?>
<svg xmlns="http://www.w3.org/2000/svg" xmlns:xlink="http://www.w3.org/1999/xlink" width="45px" height="45px" viewBox="0 0 45 45" version="1.1">
<g id="surface1">
<path style=" stroke:none;fill-rule:nonzero;fill:rgb(0%,0%,0%);fill-opacity:1;" d="M 41.46875 32.027344 L 41.46875 10.132812 C 41.46875 6.46875 38.445312 3.445312 34.777344 3.445312 L 12.972656 3.445312 L 12.972656 0.96875 L 0.96875 0.96875 L 0.96875 18.105469 L 12.972656 18.105469 L 12.972656 14.992188 L 27.90625 14.992188 C 29.003906 14.992188 29.917969 15.90625 29.917969 17.007812 L 29.917969 32.035156 L 27.078125 32.035156 L 27.078125 44.03125 L 44.03125 44.03125 L 44.03125 32.027344 Z M 11.136719 16.269531 L 2.804688 16.269531 L 2.804688 2.804688 L 11.144531 2.804688 L 11.144531 16.269531 Z M 27.90625 13.246094 L 12.972656 13.246094 L 12.972656 5.273438 L 34.777344 5.273438 C 37.433594 5.273438 39.640625 7.46875 39.640625 10.132812 L 39.640625 32.035156 L 31.667969 32.035156 L 31.753906 17.101562 C 31.753906 14.984375 30.015625 13.246094 27.90625 13.246094 Z M 42.195312 42.195312 L 28.820312 42.195312 L 28.820312 33.769531 L 42.195312 33.769531 Z M 42.195312 42.195312 "/>
</g>
</svg>
