<?xml version="1.0" encoding="UTF-8"?>
<svg xmlns="http://www.w3.org/2000/svg" xmlns:xlink="http://www.w3.org/1999/xlink" width="45px" height="45px" viewBox="0 0 45 45" version="1.1">
<g id="surface1">
<path style=" stroke:none;fill-rule:nonzero;fill:rgb(68.627451%,71.372549%,73.333333%);fill-opacity:1;" d="M 16.527344 42.589844 C 8.730469 42.589844 2.410156 36.269531 2.410156 28.472656 L 2.410156 17.679688 L 21.695312 17.679688 L 21.695312 22.085938 C 21.695312 22.757812 22.242188 23.304688 22.914062 23.304688 L 27.320312 23.304688 L 27.320312 42.589844 Z M 16.527344 42.589844 "/>
<path style=" stroke:none;fill-rule:nonzero;fill:rgb(87.843137%,88.235294%,88.627451%);fill-opacity:1;" d="M 0 14.464844 L 24.105469 14.464844 L 24.105469 17.679688 L 0 17.679688 Z M 0 14.464844 "/>
<path style=" stroke:none;fill-rule:nonzero;fill:rgb(87.843137%,88.235294%,88.627451%);fill-opacity:1;" d="M 27.320312 20.894531 L 30.535156 20.894531 L 30.535156 45 L 27.320312 45 Z M 27.320312 20.894531 "/>
<path style=" stroke:none;fill-rule:nonzero;fill:rgb(78.039216%,79.215686%,78.039216%);fill-opacity:1;" d="M 4.019531 0 L 20.089844 0 L 20.089844 14.464844 L 4.019531 14.464844 Z M 4.019531 0 "/>
<path style=" stroke:none;fill-rule:nonzero;fill:rgb(78.039216%,79.215686%,78.039216%);fill-opacity:1;" d="M 30.535156 24.910156 L 45 24.910156 L 45 40.980469 L 30.535156 40.980469 Z M 30.535156 24.910156 "/>
</g>
</svg>
