

<svg
   fill="#000000"
   height="500px"
   width="600px"
   version="1.1"
   id="Layer_1"
   xml:space="preserve"
   sodipodi:docname="motor-svgrepo-com.svg"
   inkscape:version="1.3.2 (091e20e, 2023-11-25)"
   xmlns:inkscape="http://www.inkscape.org/namespaces/inkscape"
   xmlns:sodipodi="http://sodipodi.sourceforge.net/DTD/sodipodi-0.dtd"
   xmlns="http://www.w3.org/2000/svg"
   xmlns:svg="http://www.w3.org/2000/svg"><defs
   id="defs2" /><sodipodi:namedview
   id="namedview2"
   pagecolor="#ffffff"
   bordercolor="#000000"
   borderopacity="0.25"
   inkscape:showpageshadow="2"
   inkscape:pageopacity="0.0"
   inkscape:pagecheckerboard="0"
   inkscape:deskcolor="#d1d1d1"
   inkscape:zoom="0.472"
   inkscape:cx="299.78814"
   inkscape:cy="248.94068"
   inkscape:window-width="1440"
   inkscape:window-height="900"
   inkscape:window-x="0"
   inkscape:window-y="0"
   inkscape:window-maximized="0"
   inkscape:current-layer="Layer_1" />

<g
   id="g2"
   transform="matrix(0.17654263,0,0,0.18160017,48.728813,52.730696)">
	<g
   id="g1">
		<path
   d="m 499.2,25.6 c -7.074,0 -12.8,5.726 -12.8,12.8 V 51.2 H 217.6 C 171.307,51.2 128.427,65.843 93.116,90.59 86.093,82.244 75.742,76.8 64,76.8 c -21.171,0 -38.4,17.229 -38.4,38.4 0,11.742 5.444,22.093 13.79,29.116 C 14.643,179.627 0,222.507 0,268.8 c 0,46.293 14.643,89.173 39.39,124.484 -8.346,7.023 -13.79,17.374 -13.79,29.116 0,21.171 17.229,38.4 38.4,38.4 11.742,0 22.093,-5.444 29.116,-13.79 35.311,24.747 78.191,39.39 124.484,39.39 46.293,0 89.173,-14.643 124.484,-39.39 7.023,8.346 17.374,13.79 29.116,13.79 21.171,0 38.4,-17.229 38.4,-38.4 0,-11.742 -5.444,-22.093 -13.79,-29.116 24.747,-35.311 39.39,-78.191 39.39,-124.484 0,-22.298 -3.516,-43.75 -9.805,-64 H 486.4 v 12.8 c 0,7.074 5.726,12.8 12.8,12.8 7.074,0 12.8,-5.726 12.8,-12.8 V 204.8 51.2 38.4 c 0,-7.074 -5.726,-12.8 -12.8,-12.8 z M 64,102.4 c 3.652,0 6.912,1.57 9.242,4.028 -6.349,5.649 -12.356,11.657 -18.014,18.014 -2.458,-2.338 -4.028,-5.589 -4.028,-9.242 0,-7.074 5.734,-12.8 12.8,-12.8 z m 0,332.8 c -7.066,0 -12.8,-5.734 -12.8,-12.8 0,-3.652 1.57,-6.912 4.028,-9.242 5.658,6.357 11.657,12.356 18.014,18.014 -2.33,2.458 -5.59,4.028 -9.242,4.028 z m 307.2,0 c -3.652,0 -6.903,-1.57 -9.242,-4.028 6.349,-5.658 12.356,-11.657 18.014,-18.014 2.458,2.33 4.028,5.589 4.028,9.242 0,7.066 -5.734,12.8 -12.8,12.8 z m 115.2,-256 H 293.615 c -21.316,-15.872 -47.454,-25.6 -76.015,-25.6 -70.579,0 -128,57.421 -128,128 0,70.579 57.421,128 128,128 70.579,0 128,-57.421 128,-128 0,-28.928 -10.01,-55.339 -26.249,-76.8 h 79.044 c 7.151,20.028 11.204,41.515 11.204,64 0,106.035 -85.965,192 -192,192 -106.035,0 -192,-85.965 -192,-192 0,-106.035 85.965,-192 192,-192 h 268.8 V 179.2 Z M 320,281.6 C 320,338.15 274.159,384 217.6,384 161.05,384 115.2,338.15 115.2,281.6 c 0,-56.559 45.85,-102.4 102.4,-102.4 56.559,0 102.4,45.841 102.4,102.4 z"
   id="path1" />
	</g>
</g>
</svg>
