<?xml version="1.0" encoding="UTF-8"?>
<svg xmlns="http://www.w3.org/2000/svg" xmlns:xlink="http://www.w3.org/1999/xlink" width="45px" height="45px" viewBox="0 0 45 45" version="1.1">
<g id="surface1">
<path style="fill:none;stroke-width:1.91;stroke-linecap:butt;stroke-linejoin:miter;stroke:rgb(0.784314%,0.784314%,0.784314%);stroke-opacity:1;stroke-miterlimit:10;" d="M 16.770833 15.820833 C 15.716667 15.814583 14.864583 14.9625 14.860417 13.910417 L 14.860417 9.139583 C 14.860417 5.45 11.870833 2.45625 8.179167 2.45 L 1.5 2.45 L 1.5 8.179167 L 7.229167 8.179167 C 8.283333 8.185417 9.135417 9.0375 9.139583 10.089583 L 9.139583 14.860417 C 9.139583 18.55 12.129167 21.54375 15.820833 21.55 L 22.5 21.55 L 22.5 15.820833 Z M 16.770833 15.820833 " transform="matrix(1.875,0,0,1.875,0,0)"/>
<path style="fill:none;stroke-width:1.91;stroke-linecap:butt;stroke-linejoin:miter;stroke:rgb(0.784314%,0.784314%,0.784314%);stroke-opacity:1;stroke-miterlimit:10;" d="M 7.229167 12 L 16.770833 12 " transform="matrix(1.875,0,0,1.875,0,0)"/>
<path style="fill:none;stroke-width:1.91;stroke-linecap:butt;stroke-linejoin:miter;stroke:rgb(0.784314%,0.784314%,0.784314%);stroke-opacity:1;stroke-miterlimit:10;" d="M 1.5 0.55 L 1.5 10.089583 " transform="matrix(1.875,0,0,1.875,0,0)"/>
<path style="fill:none;stroke-width:1.91;stroke-linecap:butt;stroke-linejoin:miter;stroke:rgb(0.784314%,0.784314%,0.784314%);stroke-opacity:1;stroke-miterlimit:10;" d="M 22.5 13.910417 L 22.5 23.45 " transform="matrix(1.875,0,0,1.875,0,0)"/>
</g>
</svg>
