<?xml version="1.0" encoding="UTF-8"?>
<svg xmlns="http://www.w3.org/2000/svg" xmlns:xlink="http://www.w3.org/1999/xlink" width="45px" height="45px" viewBox="0 0 45 45" version="1.1">
<g id="surface1">
<path style=" stroke:none;fill-rule:nonzero;fill:rgb(0%,0%,0%);fill-opacity:1;" d="M 41.25 26.25 L 37.5 26.25 L 37.5 30 L 26.25 30 L 26.25 24.375 L 30 24.375 L 30 20.625 L 26.25 20.625 L 26.25 11.25 C 26.25 9.179688 24.570312 7.5 22.5 7.5 L 7.5 7.5 L 7.5 3.75 L 3.75 3.75 L 3.75 18.75 L 7.5 18.75 L 7.5 15 L 18.75 15 L 18.75 20.625 L 15 20.625 L 15 24.375 L 18.75 24.375 L 18.75 33.75 C 18.75 35.820312 20.429688 37.5 22.5 37.5 L 37.5 37.5 L 37.5 41.25 L 41.25 41.25 "/>
</g>
</svg>
