<?xml version="1.0" encoding="UTF-8"?>
<svg xmlns="http://www.w3.org/2000/svg" xmlns:xlink="http://www.w3.org/1999/xlink" width="45px" height="45px" viewBox="0 0 45 45" version="1.1">
<g id="surface1">
<path style=" stroke:none;fill-rule:nonzero;fill:rgb(0%,0%,0%);fill-opacity:1;" d="M 42.75 21.464844 L 29.878906 21.464844 C 29.582031 20.574219 28.761719 19.964844 27.75 19.964844 L 24.75 19.964844 L 24.75 16.964844 L 34.5 16.964844 C 34.949219 16.964844 35.25 16.664062 35.25 16.214844 L 35.25 12.390625 C 35.25 11.640625 34.949219 10.890625 34.351562 10.515625 C 33.75 10.0625 33 9.914062 32.25 10.140625 L 24.523438 12.464844 L 20.476562 12.464844 L 12.824219 10.140625 C 12.074219 9.914062 11.324219 10.0625 10.726562 10.515625 C 10.125 10.964844 9.75 11.640625 9.75 12.390625 L 9.75 16.214844 C 9.75 16.664062 10.050781 16.964844 10.5 16.964844 L 20.25 16.964844 L 20.25 19.964844 L 17.25 19.964844 C 16.238281 19.964844 15.417969 20.574219 15.121094 21.464844 L 2.25 21.464844 C 0.976562 21.464844 0 22.4375 0 23.714844 L 0 31.214844 C 0 32.488281 0.976562 33.464844 2.25 33.464844 L 15.121094 33.464844 C 15.417969 34.351562 16.238281 34.964844 17.25 34.964844 L 27.75 34.964844 C 28.761719 34.964844 29.582031 34.351562 29.878906 33.464844 L 42.75 33.464844 C 44.023438 33.464844 45 32.488281 45 31.214844 L 45 23.714844 C 45 22.4375 44.023438 21.464844 42.75 21.464844 Z M 32.625 11.5625 C 32.925781 11.488281 33.148438 11.5625 33.375 11.714844 C 33.601562 11.863281 33.75 12.089844 33.75 12.390625 L 33.75 15.464844 L 25.5 15.464844 L 25.5 13.738281 Z M 24 15.464844 L 21 15.464844 L 21 13.964844 L 24 13.964844 Z M 11.25 12.390625 C 11.25 12.089844 11.324219 11.863281 11.550781 11.714844 C 11.773438 11.5625 12.074219 11.488281 12.300781 11.5625 L 19.5 13.738281 L 19.5 15.464844 L 11.25 15.464844 Z M 21.75 16.964844 L 23.25 16.964844 L 23.25 19.964844 L 21.75 19.964844 Z M 1.5 31.214844 L 1.5 25.964844 L 3.75 25.964844 C 4.199219 25.964844 4.5 25.664062 4.5 25.214844 C 4.5 24.765625 4.199219 24.464844 3.75 24.464844 L 1.5 24.464844 L 1.5 23.714844 C 1.5 23.265625 1.800781 22.964844 2.25 22.964844 L 15 22.964844 L 15 24.464844 L 9.75 24.464844 C 9.300781 24.464844 9 24.765625 9 25.214844 C 9 25.664062 9.300781 25.964844 9.75 25.964844 L 15 25.964844 L 15 31.964844 L 2.25 31.964844 C 1.800781 31.964844 1.5 31.664062 1.5 31.214844 Z M 27.75 33.464844 L 17.25 33.464844 C 16.800781 33.464844 16.5 33.164062 16.5 32.714844 L 16.5 22.214844 C 16.5 21.765625 16.800781 21.464844 17.25 21.464844 L 27.75 21.464844 C 28.199219 21.464844 28.5 21.765625 28.5 22.214844 L 28.5 32.714844 C 28.5 33.164062 28.199219 33.464844 27.75 33.464844 Z M 42.75 31.964844 L 30 31.964844 L 30 25.964844 L 36.75 25.964844 C 37.199219 25.964844 37.5 25.664062 37.5 25.214844 C 37.5 24.765625 37.199219 24.464844 36.75 24.464844 L 30 24.464844 L 30 22.964844 L 42.75 22.964844 C 43.199219 22.964844 43.5 23.265625 43.5 23.714844 L 43.5 24.464844 L 42.75 24.464844 C 42.300781 24.464844 42 24.765625 42 25.214844 C 42 25.664062 42.300781 25.964844 42.75 25.964844 L 43.5 25.964844 L 43.5 31.214844 C 43.5 31.664062 43.199219 31.964844 42.75 31.964844 Z M 42.75 31.964844 "/>
<path style=" stroke:none;fill-rule:nonzero;fill:rgb(0%,0%,0%);fill-opacity:1;" d="M 6.75 24.464844 C 6.300781 24.464844 6 24.765625 6 25.214844 C 6 25.664062 6.300781 25.964844 6.75 25.964844 C 7.199219 25.964844 7.5 25.664062 7.5 25.214844 C 7.5 24.765625 7.199219 24.464844 6.75 24.464844 Z M 6.75 24.464844 "/>
<path style=" stroke:none;fill-rule:nonzero;fill:rgb(0%,0%,0%);fill-opacity:1;" d="M 39.75 24.464844 C 39.300781 24.464844 39 24.765625 39 25.214844 C 39 25.664062 39.300781 25.964844 39.75 25.964844 C 40.199219 25.964844 40.5 25.664062 40.5 25.214844 C 40.5 24.765625 40.199219 24.464844 39.75 24.464844 Z M 39.75 24.464844 "/>
</g>
</svg>
