<?xml version="1.0" encoding="UTF-8"?>
<svg xmlns="http://www.w3.org/2000/svg" xmlns:xlink="http://www.w3.org/1999/xlink" width="45px" height="45px" viewBox="0 0 45 45" version="1.1">
<g id="surface1">
<path style=" stroke:none;fill-rule:nonzero;fill:rgb(0%,0%,0%);fill-opacity:1;" d="M 43.097656 13.082031 L 35.832031 13.082031 C 34.785156 13.082031 33.921875 13.945312 33.921875 14.992188 L 33.921875 16.902344 L 24.847656 16.902344 L 24.847656 6.777344 L 29.53125 6.777344 C 30.578125 6.777344 31.441406 5.914062 31.441406 4.867188 C 31.441406 3.820312 30.578125 2.957031 29.53125 2.957031 L 16.339844 2.957031 C 15.292969 2.957031 14.429688 3.820312 14.429688 4.867188 C 14.429688 5.914062 15.292969 6.777344 16.339844 6.777344 L 21.027344 6.777344 L 21.027344 16.910156 L 10.984375 16.910156 L 10.984375 15 C 10.984375 13.953125 10.121094 13.089844 9.074219 13.089844 L 1.910156 13.089844 C 0.863281 13.089844 0 13.953125 0 15 L 0 40.132812 C 0 41.179688 0.863281 42.042969 1.910156 42.042969 L 9.074219 42.042969 C 10.121094 42.042969 10.984375 41.179688 10.984375 40.132812 L 10.984375 38.222656 L 33.921875 38.222656 L 33.921875 40.132812 C 33.921875 41.179688 34.785156 42.042969 35.832031 42.042969 L 42.996094 42.042969 C 44.042969 42.042969 44.90625 41.179688 45 40.222656 L 45 14.992188 C 45.007812 13.945312 44.144531 13.082031 43.097656 13.082031 Z M 41.1875 38.3125 L 37.742188 38.3125 L 37.742188 36.308594 C 37.742188 35.261719 36.878906 34.398438 35.832031 34.398438 L 9.175781 34.398438 C 8.128906 34.398438 7.265625 35.261719 7.265625 36.308594 L 7.265625 38.222656 L 3.730469 38.222656 L 3.730469 16.820312 L 7.164062 16.820312 L 7.164062 18.730469 C 7.164062 19.777344 8.027344 20.640625 9.074219 20.640625 L 35.742188 20.640625 C 36.789062 20.640625 37.652344 19.777344 37.652344 18.730469 L 37.652344 16.820312 L 41.1875 16.820312 Z M 41.1875 38.3125 "/>
</g>
</svg>
