<?xml version="1.0" encoding="UTF-8"?>
<svg xmlns="http://www.w3.org/2000/svg" xmlns:xlink="http://www.w3.org/1999/xlink" width="45px" height="45px" viewBox="0 0 45 45" version="1.1">
<g id="surface1">
<path style=" stroke:none;fill-rule:nonzero;fill:rgb(0%,0%,0%);fill-opacity:1;" d="M 32.382812 20.484375 L 32.128906 20.484375 L 32.128906 18.5625 C 32.128906 16.820312 30.714844 15.40625 28.972656 15.40625 L 26.179688 15.40625 L 26.179688 12.984375 L 32.59375 12.984375 C 34.625 12.984375 36.273438 11.339844 36.273438 9.304688 C 36.273438 7.273438 34.625 5.625 32.59375 5.625 L 25.507812 5.625 C 24.839844 4.683594 23.742188 4.066406 22.5 4.066406 C 21.257812 4.066406 20.160156 4.683594 19.492188 5.625 L 12.40625 5.625 C 10.375 5.625 8.726562 7.273438 8.726562 9.304688 C 8.726562 11.339844 10.375 12.984375 12.40625 12.984375 L 18.820312 12.984375 L 18.820312 15.40625 L 16.027344 15.40625 C 14.285156 15.40625 12.871094 16.820312 12.871094 18.5625 L 12.871094 20.484375 L 12.617188 20.484375 C 5.660156 20.484375 0 26.144531 0 33.101562 L 0 40.933594 L 8.410156 40.933594 L 8.410156 33.101562 C 8.410156 30.78125 10.296875 28.894531 12.617188 28.894531 L 12.871094 28.894531 L 12.871094 30.816406 C 12.871094 32.558594 14.285156 33.96875 16.027344 33.96875 L 28.972656 33.96875 C 30.714844 33.96875 32.128906 32.558594 32.128906 30.816406 L 32.128906 28.894531 L 32.382812 28.894531 C 34.703125 28.894531 36.589844 30.78125 36.589844 33.101562 L 36.589844 40.933594 L 45 40.933594 L 45 33.101562 C 45 26.144531 39.339844 20.484375 32.382812 20.484375 Z M 32.382812 20.484375 "/>
</g>
</svg>
