<?xml version="1.0" encoding="UTF-8"?>
<svg xmlns="http://www.w3.org/2000/svg" xmlns:xlink="http://www.w3.org/1999/xlink" width="45px" height="45px" viewBox="0 0 45 45" version="1.1">
<g id="surface1">
<path style=" stroke:none;fill-rule:nonzero;fill:rgb(78.039216%,79.607843%,78.039216%);fill-opacity:1;" d="M 20.949219 20.671875 L 24.050781 20.671875 L 24.050781 16.015625 L 20.949219 16.015625 Z M 20.949219 20.671875 "/>
<path style=" stroke:none;fill-rule:nonzero;fill:rgb(71.764706%,18.431373%,16.078431%);fill-opacity:1;" d="M 20.171875 16.015625 L 24.828125 16.015625 L 24.828125 12.914062 L 20.171875 12.914062 Z M 20.171875 16.015625 "/>
<path style=" stroke:none;fill-rule:nonzero;fill:rgb(88.235294%,33.72549%,28.627451%);fill-opacity:1;" d="M 34.914062 16.015625 L 24.828125 16.015625 L 24.828125 12.914062 L 32.820312 10.429688 C 33.90625 10.121094 34.914062 10.898438 34.914062 11.984375 Z M 34.914062 16.015625 "/>
<path style=" stroke:none;fill-rule:nonzero;fill:rgb(88.235294%,33.72549%,28.627451%);fill-opacity:1;" d="M 10.085938 16.015625 L 20.171875 16.015625 L 20.171875 12.914062 L 12.179688 10.429688 C 11.09375 10.121094 10.085938 10.898438 10.085938 11.984375 Z M 10.085938 16.015625 "/>
<path style=" stroke:none;fill-rule:nonzero;fill:rgb(78.039216%,79.607843%,78.039216%);fill-opacity:1;" d="M 15.515625 22.222656 L 1.550781 22.222656 C 0.699219 22.222656 0 22.921875 0 23.777344 L 0 31.535156 C 0 32.386719 0.699219 33.085938 1.550781 33.085938 L 15.515625 33.085938 Z M 15.515625 22.222656 "/>
<path style=" stroke:none;fill-rule:nonzero;fill:rgb(78.039216%,79.607843%,78.039216%);fill-opacity:1;" d="M 29.484375 22.222656 L 29.484375 33.085938 L 43.449219 33.085938 C 44.300781 33.085938 45 32.386719 45 31.535156 L 45 23.777344 C 45 22.921875 44.300781 22.222656 43.449219 22.222656 Z M 29.484375 22.222656 "/>
<path style=" stroke:none;fill-rule:nonzero;fill:rgb(58.039216%,58.039216%,57.647059%);fill-opacity:1;" d="M 15.515625 26.101562 L 9.308594 26.101562 C 8.84375 26.101562 8.535156 25.792969 8.535156 25.328125 C 8.535156 24.863281 8.84375 24.550781 9.308594 24.550781 L 15.515625 24.550781 C 15.984375 24.550781 16.292969 24.863281 16.292969 25.328125 C 16.292969 25.792969 15.984375 26.101562 15.515625 26.101562 "/>
<path style=" stroke:none;fill-rule:nonzero;fill:rgb(58.039216%,58.039216%,57.647059%);fill-opacity:1;" d="M 6.984375 25.328125 C 6.984375 24.863281 6.671875 24.550781 6.207031 24.550781 C 5.742188 24.550781 5.429688 24.863281 5.429688 25.328125 C 5.429688 25.792969 5.742188 26.101562 6.207031 26.101562 C 6.671875 26.101562 6.984375 25.792969 6.984375 25.328125 "/>
<path style=" stroke:none;fill-rule:nonzero;fill:rgb(58.039216%,58.039216%,57.647059%);fill-opacity:1;" d="M 37.242188 26.101562 L 29.484375 26.101562 C 29.015625 26.101562 28.707031 25.792969 28.707031 25.328125 C 28.707031 24.863281 29.015625 24.550781 29.484375 24.550781 L 37.242188 24.550781 C 37.707031 24.550781 38.015625 24.863281 38.015625 25.328125 C 38.015625 25.792969 37.707031 26.101562 37.242188 26.101562 "/>
<path style=" stroke:none;fill-rule:nonzero;fill:rgb(58.039216%,58.039216%,57.647059%);fill-opacity:1;" d="M 41.121094 25.328125 C 41.121094 24.863281 40.808594 24.550781 40.34375 24.550781 C 39.878906 24.550781 39.570312 24.863281 39.570312 25.328125 C 39.570312 25.792969 39.878906 26.101562 40.34375 26.101562 C 40.808594 26.101562 41.121094 25.792969 41.121094 25.328125 "/>
<path style=" stroke:none;fill-rule:nonzero;fill:rgb(58.039216%,58.039216%,57.647059%);fill-opacity:1;" d="M 27.929688 34.636719 L 17.070312 34.636719 C 16.214844 34.636719 15.515625 33.941406 15.515625 33.085938 L 15.515625 22.222656 C 15.515625 21.371094 16.214844 20.671875 17.070312 20.671875 L 27.929688 20.671875 C 28.785156 20.671875 29.484375 21.371094 29.484375 22.222656 L 29.484375 33.085938 C 29.484375 33.941406 28.785156 34.636719 27.929688 34.636719 "/>
<path style=" stroke:none;fill-rule:nonzero;fill:rgb(58.039216%,58.039216%,57.647059%);fill-opacity:1;" d="M 43.449219 24.550781 C 42.984375 24.550781 42.671875 24.863281 42.671875 25.328125 C 42.671875 25.792969 42.984375 26.101562 43.449219 26.101562 L 45 26.101562 L 45 24.550781 Z M 43.449219 24.550781 "/>
<path style=" stroke:none;fill-rule:nonzero;fill:rgb(58.039216%,58.039216%,57.647059%);fill-opacity:1;" d="M 3.101562 26.101562 C 3.570312 26.101562 3.878906 25.792969 3.878906 25.328125 C 3.878906 24.863281 3.570312 24.550781 3.101562 24.550781 L 0 24.550781 L 0 26.101562 Z M 3.101562 26.101562 "/>
</g>
</svg>
