<?xml version="1.0" encoding="UTF-8"?>
<svg xmlns="http://www.w3.org/2000/svg" xmlns:xlink="http://www.w3.org/1999/xlink" width="45px" height="45px" viewBox="0 0 45 45" version="1.1">
<g id="surface1">
<path style="fill:none;stroke-width:2;stroke-linecap:round;stroke-linejoin:round;stroke:rgb(0%,0%,0%);stroke-opacity:1;stroke-miterlimit:10;" d="M 11 7 L 5 7 C 3.9 7 3 6.1 3 5 L 3 3 L 13 3 L 13 5 C 13 6.1 12.1 7 11 7 Z M 11 7 " transform="matrix(1.40625,0,0,1.40625,0,0)"/>
<path style="fill:none;stroke-width:2;stroke-linecap:round;stroke-linejoin:round;stroke:rgb(0%,0%,0%);stroke-opacity:1;stroke-miterlimit:10;" d="M 18 13 L 18 19 C 18 19.6 17.6 20 17 20 L 15 20 C 14.4 20 14 19.6 14 19 L 14 13 C 14 12.4 14.4 12 15 12 L 17 12 C 17.6 12 18 12.4 18 13 Z M 18 13 " transform="matrix(1.40625,0,0,1.40625,0,0)"/>
<path style="fill:none;stroke-width:2;stroke-linecap:round;stroke-linejoin:round;stroke:rgb(0%,0%,0%);stroke-opacity:1;stroke-miterlimit:10;" d="M 29 29 L 19 29 L 19 27 C 19 25.9 19.9 25 21 25 L 27 25 C 28.1 25 29 25.9 29 27 Z M 29 29 " transform="matrix(1.40625,0,0,1.40625,0,0)"/>
<path style="fill:none;stroke-width:2;stroke-linecap:round;stroke-linejoin:round;stroke:rgb(0%,0%,0%);stroke-opacity:1;stroke-miterlimit:10;" d="M 14 13 L 12.2 13 C 11.6 13 11 12.5 11 11.8 L 11 7 L 5 7 L 5 13 C 5 16.3 7.7 19 11 19 L 14 19 " transform="matrix(1.40625,0,0,1.40625,0,0)"/>
<path style="fill:none;stroke-width:2;stroke-linecap:round;stroke-linejoin:round;stroke:rgb(0%,0%,0%);stroke-opacity:1;stroke-miterlimit:10;" d="M 18 19 L 19.8 19 C 20.4 19 21 19.5 21 20.2 L 21 25 L 27 25 L 27 19 C 27 15.7 24.3 13 21 13 L 18 13 " transform="matrix(1.40625,0,0,1.40625,0,0)"/>
</g>
</svg>
