<?xml version="1.0" encoding="UTF-8"?>
<svg xmlns="http://www.w3.org/2000/svg" xmlns:xlink="http://www.w3.org/1999/xlink" width="45px" height="45px" viewBox="0 0 45 45" version="1.1">
<g id="surface1">
<path style=" stroke:none;fill-rule:nonzero;fill:rgb(0%,0%,0%);fill-opacity:1;" d="M 44.25 31.5 L 35.25 31.5 L 35.25 27 L 44.25 27 C 44.699219 27 45 26.699219 45 26.25 C 45 25.800781 44.699219 25.5 44.25 25.5 L 35.25 25.5 L 35.25 23.25 C 35.25 22.800781 34.949219 22.5 34.5 22.5 L 27.675781 22.5 L 27.675781 18.789062 C 31.242188 17.339844 33.75 13.847656 33.75 9.75 C 33.75 4.351562 29.398438 0 24 0 C 18.601562 0 14.25 4.351562 14.25 9.75 C 14.25 13.820312 16.722656 17.292969 20.25 18.757812 L 20.25 22.5 L 13.5 22.5 C 13.050781 22.5 12.75 22.800781 12.75 23.25 L 12.75 25.519531 C 5.671875 25.910156 0 31.75 0 38.851562 L 0 44.25 C 0 44.699219 0.300781 45 0.75 45 C 1.199219 45 1.5 44.699219 1.5 44.25 L 1.5 38.851562 C 1.5 32.550781 6.523438 27.375 12.75 27 L 12.75 31.351562 C 9 31.800781 6 34.949219 6 38.851562 L 6 44.25 C 6 44.699219 6.300781 45 6.75 45 C 7.199219 45 7.5 44.699219 7.5 44.25 L 7.5 38.851562 C 7.5 35.804688 9.800781 33.269531 12.75 32.898438 L 12.75 35.25 C 12.75 35.699219 13.050781 36 13.5 36 L 34.5 36 C 34.949219 36 35.25 35.699219 35.25 35.25 L 35.25 33 L 44.25 33 C 44.699219 33 45 32.699219 45 32.25 C 45 31.800781 44.699219 31.5 44.25 31.5 Z M 26.164062 17.707031 C 26.121094 17.71875 26.078125 17.734375 26.03125 17.742188 C 26.023438 17.746094 26.015625 17.75 26.007812 17.75 C 25.335938 17.914062 24.65625 18 23.976562 18 C 23.953125 18 23.925781 18 23.898438 18 C 23.847656 18 23.792969 17.996094 23.742188 17.996094 C 22.378906 17.953125 21.089844 17.574219 19.960938 16.933594 C 20.9375 15.671875 22.429688 15 24 15 C 25.570312 15 27.0625 15.671875 28.039062 16.933594 C 27.453125 17.265625 26.824219 17.527344 26.164062 17.707031 Z M 15.75 9.75 C 15.75 5.175781 19.5 1.5 24 1.5 C 28.574219 1.5 32.25 5.175781 32.25 9.75 C 32.25 12.289062 31.097656 14.546875 29.300781 16.058594 C 28.011719 14.441406 26.121094 13.5 24 13.5 C 21.957031 13.5 20.027344 14.429688 18.726562 16.078125 C 16.914062 14.570312 15.75 12.300781 15.75 9.75 Z M 21.75 19.242188 C 21.800781 19.253906 21.851562 19.261719 21.902344 19.273438 C 21.957031 19.285156 22.011719 19.296875 22.066406 19.308594 C 22.121094 19.320312 22.175781 19.332031 22.230469 19.339844 C 22.28125 19.351562 22.332031 19.359375 22.382812 19.367188 C 22.464844 19.378906 22.546875 19.394531 22.628906 19.40625 C 22.6875 19.414062 22.742188 19.421875 22.800781 19.425781 C 22.851562 19.433594 22.898438 19.4375 22.949219 19.445312 C 23.027344 19.453125 23.105469 19.460938 23.183594 19.464844 C 23.222656 19.46875 23.261719 19.472656 23.300781 19.476562 C 23.390625 19.480469 23.480469 19.488281 23.574219 19.492188 C 23.605469 19.492188 23.636719 19.492188 23.667969 19.492188 C 23.777344 19.496094 23.890625 19.5 24 19.5 C 24.109375 19.5 24.222656 19.496094 24.332031 19.492188 C 24.363281 19.492188 24.394531 19.492188 24.425781 19.492188 C 24.523438 19.484375 24.621094 19.480469 24.71875 19.472656 C 24.742188 19.472656 24.761719 19.46875 24.785156 19.46875 C 24.882812 19.460938 24.976562 19.453125 25.074219 19.441406 C 25.105469 19.4375 25.136719 19.433594 25.167969 19.429688 C 25.535156 19.386719 25.894531 19.324219 26.25 19.242188 L 26.25 22.5 L 21.75 22.5 Z M 33.75 34.5 L 14.25 34.5 L 14.25 24 L 33.75 24 Z M 33.75 34.5 "/>
<path style=" stroke:none;fill-rule:nonzero;fill:rgb(0%,0%,0%);fill-opacity:1;" d="M 30 26.25 L 18 26.25 C 17.550781 26.25 17.25 26.550781 17.25 27 L 17.25 31.5 C 17.25 31.949219 17.550781 32.25 18 32.25 L 30 32.25 C 30.449219 32.25 30.75 31.949219 30.75 31.5 L 30.75 27 C 30.75 26.550781 30.449219 26.25 30 26.25 Z M 29.25 30.75 L 18.75 30.75 L 18.75 27.75 L 29.25 27.75 Z M 29.25 30.75 "/>
<path style=" stroke:none;fill-rule:nonzero;fill:rgb(0%,0%,0%);fill-opacity:1;" d="M 18.75 9.75 C 18.75 9.375 18.449219 9 18 9 C 17.550781 9 17.25 9.300781 17.25 9.75 C 17.25 10.199219 17.550781 10.5 18 10.5 C 18.449219 10.5 18.75 10.199219 18.75 9.75 Z M 18.75 9.75 "/>
<path style=" stroke:none;fill-rule:nonzero;fill:rgb(0%,0%,0%);fill-opacity:1;" d="M 30 10.5 C 30.449219 10.5 30.75 10.199219 30.75 9.75 C 30.75 9.375 30.449219 9 30 9 C 29.550781 9 29.25 9.300781 29.25 9.75 C 29.25 10.199219 29.550781 10.5 30 10.5 Z M 30 10.5 "/>
<path style=" stroke:none;fill-rule:nonzero;fill:rgb(0%,0%,0%);fill-opacity:1;" d="M 19.5 6.75 C 19.949219 6.75 20.25 6.449219 20.25 6 C 20.25 5.625 19.949219 5.25 19.5 5.25 C 19.050781 5.25 18.75 5.550781 18.75 6 C 18.75 6.449219 19.050781 6.75 19.5 6.75 Z M 19.5 6.75 "/>
<path style=" stroke:none;fill-rule:nonzero;fill:rgb(0%,0%,0%);fill-opacity:1;" d="M 24 4.5 C 24.449219 4.5 24.75 4.199219 24.75 3.75 C 24.75 3.375 24.449219 3 24 3 C 23.550781 3 23.25 3.300781 23.25 3.75 C 23.25 4.199219 23.550781 4.5 24 4.5 Z M 24 4.5 "/>
<path style=" stroke:none;fill-rule:nonzero;fill:rgb(0%,0%,0%);fill-opacity:1;" d="M 28.5 6.75 C 28.949219 6.75 29.25 6.449219 29.25 6 C 29.25 5.625 28.949219 5.25 28.5 5.25 C 28.050781 5.25 27.75 5.550781 27.75 6 C 27.75 6.449219 28.050781 6.75 28.5 6.75 Z M 28.5 6.75 "/>
<path style=" stroke:none;fill-rule:nonzero;fill:rgb(0%,0%,0%);fill-opacity:1;" d="M 23.398438 11.699219 C 23.550781 11.925781 24.074219 11.925781 24.375 11.773438 C 24.675781 11.550781 24.75 11.023438 24.449219 10.726562 L 21.976562 7.726562 C 21.75 7.425781 21.226562 7.351562 20.925781 7.648438 C 20.625 7.875 20.550781 8.398438 20.851562 8.699219 Z M 23.398438 11.699219 "/>
</g>
</svg>
