<?xml version="1.0" encoding="UTF-8"?>
<svg xmlns="http://www.w3.org/2000/svg" xmlns:xlink="http://www.w3.org/1999/xlink" width="45px" height="45px" viewBox="0 0 45 45" version="1.1">
<g id="surface1">
<path style=" stroke:none;fill-rule:nonzero;fill:rgb(100%,86.666667%,3.529412%);fill-opacity:1;" d="M 27.75 24.375 L 27.75 12.375 L 17.25 12.375 L 17.25 24.375 L 5.25 24.375 L 5.25 34.875 L 39.75 34.875 L 39.75 24.375 Z M 27.75 24.375 "/>
<path style=" stroke:none;fill-rule:nonzero;fill:rgb(98.823529%,76.470588%,3.529412%);fill-opacity:1;" d="M 15 11.625 L 15 8.625 C 15 8.175781 15.300781 7.875 15.75 7.875 L 29.25 7.875 C 29.699219 7.875 30 8.175781 30 8.625 L 30 11.625 C 30 12.074219 29.699219 12.375 29.25 12.375 L 15.75 12.375 C 15.375 12.375 15 12.074219 15 11.625 "/>
<path style=" stroke:none;fill-rule:nonzero;fill:rgb(99.215686%,59.607843%,3.137255%);fill-opacity:1;" d="M 29.25 7.875 L 27 7.875 C 27.449219 7.875 27.75 8.175781 27.75 8.625 L 27.75 11.625 C 27.75 12.074219 27.449219 12.375 27 12.375 L 29.25 12.375 C 29.699219 12.375 30 12.074219 30 11.625 L 30 8.625 C 30 8.25 29.699219 7.875 29.25 7.875 "/>
<path style=" stroke:none;fill-rule:nonzero;fill:rgb(100%,100%,100%);fill-opacity:1;" d="M 17.25 11.625 L 17.25 8.625 C 17.25 8.175781 17.550781 7.875 18 7.875 L 15.75 7.875 C 15.300781 7.875 15 8.175781 15 8.625 L 15 11.625 C 15 12.074219 15.300781 12.375 15.75 12.375 L 18 12.375 C 17.625 12.375 17.25 12.074219 17.25 11.625 "/>
<path style=" stroke:none;fill-rule:nonzero;fill:rgb(98.823529%,76.470588%,3.529412%);fill-opacity:1;" d="M 40.5 22.125 L 43.5 22.125 C 43.949219 22.125 44.25 22.425781 44.25 22.875 L 44.25 36.375 C 44.25 36.824219 43.949219 37.125 43.5 37.125 L 40.5 37.125 C 40.050781 37.125 39.75 36.824219 39.75 36.375 L 39.75 22.875 C 39.75 22.5 40.125 22.125 40.5 22.125 "/>
<path style=" stroke:none;fill-rule:nonzero;fill:rgb(99.215686%,59.607843%,3.137255%);fill-opacity:1;" d="M 43.5 22.125 L 42 22.125 C 42.449219 22.125 42 22.425781 42 22.875 L 42 36.375 C 42 36.824219 42.449219 37.125 42 37.125 L 43.5 37.125 C 43.949219 37.125 44.25 36.824219 44.25 36.375 L 44.25 22.875 C 44.25 22.5 43.949219 22.125 43.5 22.125 "/>
<path style=" stroke:none;fill-rule:nonzero;fill:rgb(98.823529%,76.470588%,3.529412%);fill-opacity:1;" d="M 4.5 37.125 L 1.5 37.125 C 1.050781 37.125 0.75 36.824219 0.75 36.375 L 0.75 22.875 C 0.75 22.425781 1.050781 22.125 1.5 22.125 L 4.5 22.125 C 4.949219 22.125 5.25 22.425781 5.25 22.875 L 5.25 36.375 C 5.25 36.824219 4.949219 37.125 4.5 37.125 "/>
<path style=" stroke:none;fill-rule:nonzero;fill:rgb(100%,100%,100%);fill-opacity:1;" d="M 1.800781 22.125 L 3.75 22.125 C 3.226562 22.125 3 22.425781 3 22.875 L 3 36.375 C 3 36.824219 3.226562 37.125 3.75 37.125 L 1.800781 37.125 C 1.199219 37.125 0.75 36.824219 0.75 36.375 L 0.75 22.875 C 0.75 22.5 1.199219 22.125 1.800781 22.125 "/>
<path style=" stroke:none;fill-rule:nonzero;fill:rgb(0%,0%,0%);fill-opacity:1;" d="M 39.75 35.625 L 5.25 35.625 C 4.800781 35.625 4.5 35.324219 4.5 34.875 L 4.5 24.375 C 4.5 23.925781 4.800781 23.625 5.25 23.625 L 16.5 23.625 L 16.5 12.375 C 16.5 11.925781 16.800781 11.625 17.25 11.625 L 27.75 11.625 C 28.199219 11.625 28.5 11.925781 28.5 12.375 L 28.5 23.625 L 39.75 23.625 C 40.199219 23.625 40.5 23.925781 40.5 24.375 L 40.5 34.875 C 40.5 35.324219 40.199219 35.625 39.75 35.625 Z M 6 34.125 L 39 34.125 L 39 25.125 L 27.75 25.125 C 27.300781 25.125 27 24.824219 27 24.375 L 27 13.125 L 18 13.125 L 18 24.375 C 18 24.824219 17.699219 25.125 17.25 25.125 L 6 25.125 Z M 6 34.125 "/>
<path style=" stroke:none;fill-rule:nonzero;fill:rgb(0%,0%,0%);fill-opacity:1;" d="M 4.5 37.875 L 1.5 37.875 C 0.675781 37.875 0 37.199219 0 36.375 L 0 22.875 C 0 22.050781 0.675781 21.375 1.5 21.375 L 4.5 21.375 C 5.324219 21.375 6 22.050781 6 22.875 L 6 36.375 C 6 37.199219 5.324219 37.875 4.5 37.875 Z M 4.5 36.375 L 4.5 37.125 Z M 1.5 22.875 L 1.5 36.375 L 4.5 36.375 L 4.5 22.875 Z M 1.5 22.875 "/>
<path style=" stroke:none;fill-rule:nonzero;fill:rgb(0%,0%,0%);fill-opacity:1;" d="M 43.5 37.875 L 40.5 37.875 C 39.675781 37.875 39 37.199219 39 36.375 L 39 22.875 C 39 22.050781 39.675781 21.375 40.5 21.375 L 43.5 21.375 C 44.324219 21.375 45 22.050781 45 22.875 L 45 36.375 C 45 37.199219 44.324219 37.875 43.5 37.875 Z M 43.5 36.375 L 43.5 37.125 Z M 40.5 22.875 L 40.5 36.375 L 43.5 36.375 L 43.5 22.875 Z M 40.5 22.875 "/>
<path style=" stroke:none;fill-rule:nonzero;fill:rgb(0%,0%,0%);fill-opacity:1;" d="M 24 16.125 C 23.550781 16.125 23.25 15.824219 23.25 15.375 L 23.25 12.375 C 23.25 11.925781 23.550781 11.625 24 11.625 C 24.449219 11.625 24.75 11.925781 24.75 12.375 L 24.75 15.375 C 24.75 15.824219 24.449219 16.125 24 16.125 Z M 24 16.125 "/>
<path style=" stroke:none;fill-rule:nonzero;fill:rgb(0%,0%,0%);fill-opacity:1;" d="M 24 28.125 C 23.550781 28.125 23.25 27.824219 23.25 27.375 L 23.25 21.375 C 23.25 20.925781 23.550781 20.625 24 20.625 C 24.449219 20.625 24.75 20.925781 24.75 21.375 L 24.75 27.375 C 24.75 27.824219 24.449219 28.125 24 28.125 Z M 24 28.125 "/>
<path style=" stroke:none;fill-rule:nonzero;fill:rgb(0%,0%,0%);fill-opacity:1;" d="M 24 19.125 C 24.449219 19.125 24.75 18.824219 24.75 18.375 C 24.75 17.925781 24.449219 17.625 24 17.625 C 23.550781 17.625 23.25 17.925781 23.25 18.375 C 23.25 18.824219 23.625 19.125 24 19.125 "/>
<path style=" stroke:none;fill-rule:nonzero;fill:rgb(0%,0%,0%);fill-opacity:1;" d="M 31.5 28.125 L 24 28.125 C 23.550781 28.125 23.25 27.824219 23.25 27.375 C 23.25 26.925781 23.550781 26.625 24 26.625 L 31.5 26.625 C 31.949219 26.625 32.25 26.925781 32.25 27.375 C 32.25 27.824219 31.949219 28.125 31.5 28.125 Z M 31.5 28.125 "/>
<path style=" stroke:none;fill-rule:nonzero;fill:rgb(0%,0%,0%);fill-opacity:1;" d="M 39.75 28.125 L 36 28.125 C 35.550781 28.125 35.25 27.824219 35.25 27.375 C 35.25 26.925781 35.550781 26.625 36 26.625 L 39.75 26.625 C 40.199219 26.625 40.5 26.925781 40.5 27.375 C 40.5 27.824219 40.199219 28.125 39.75 28.125 Z M 39.75 28.125 "/>
<path style=" stroke:none;fill-rule:nonzero;fill:rgb(0%,0%,0%);fill-opacity:1;" d="M 29.25 13.125 L 15.75 13.125 C 14.925781 13.125 14.25 12.449219 14.25 11.625 L 14.25 8.625 C 14.25 7.800781 14.925781 7.125 15.75 7.125 L 29.25 7.125 C 30.074219 7.125 30.75 7.800781 30.75 8.625 L 30.75 11.625 C 30.75 12.449219 30.074219 13.125 29.25 13.125 Z M 15.75 8.625 L 15.75 11.625 L 29.25 11.625 L 29.25 8.625 Z M 15.75 8.625 "/>
</g>
</svg>
